<svg width="100" height="67" viewBox="0 0 100 67" fill="none" xmlns="http://www.w3.org/2000/svg">
<path d="M2 60.5V17.8185C2 15.0571 4.23858 12.8185 7 12.8185H14.2844V6.23333H24.7488V12.8185H41.9079C43.4278 12.8185 44.8652 12.1272 45.814 10.9397L51.4561 3.87879C52.4049 2.69137 53.8423 2 55.3623 2H67.8415C69.3615 2 70.7989 2.69137 71.7477 3.87879L77.3897 10.9397C78.3386 12.1272 79.776 12.8185 81.2959 12.8185H93C95.7614 12.8185 98 15.0571 98 17.8185V60.5C98 63.2614 95.7614 65.5 93 65.5H7C4.23858 65.5 2 63.2614 2 60.5Z" stroke="#FFFEFE" stroke-width="3"/>
<path d="M84.8059 38.7574V37.6798C84.8059 28.8851 77.6764 21.7556 68.8817 21.7556C60.087 21.7556 52.9575 28.8851 52.9575 37.6798V38.7574C52.9575 47.5521 60.087 54.6815 68.8817 54.6815C77.6764 54.6815 84.8059 47.552 84.8059 38.7574Z" stroke="white" stroke-width="3"/>
<path d="M20.1986 27.5539V27.2461C20.1986 24.7333 18.1616 22.6963 15.6489 22.6963C13.1361 22.6963 11.0991 24.7333 11.0991 27.2461V27.5539C11.0991 30.0667 13.1361 32.1037 15.6489 32.1037C18.1616 32.1037 20.1986 30.0667 20.1986 27.5539Z" fill="#E0E0E3" stroke="#E0E0E3" stroke-width="3"/>
</svg>
