<svg width="19" height="38" viewBox="0 0 19 38" fill="none" xmlns="http://www.w3.org/2000/svg">
<path d="M10.3292 37.1032H8.05525V32.8927C3.81562 32.3552 1.15625 30.0709 0 26.0396L2.54375 24.875C3.46875 27.8761 5.43437 29.6677 8.05525 29.8917V19.724C5.66562 19.0073 4.81771 18.649 3.7 17.8875C2.04271 16.7677 1.04062 14.5729 1.04062 12.1542C1.04062 9.42191 2.27396 7.00316 4.35521 5.74899C5.43438 5.12191 6.28229 4.80837 8.05525 4.49482V0.866699H10.3292V4.49482C14.1063 4.89795 16.4188 6.73441 17.6136 10.2282L15.0698 11.2136C14.4146 8.88441 12.7188 7.54066 10.3292 7.36149V16.7229C12.7573 17.35 13.6053 17.6636 14.8 18.3802C16.8042 19.5896 18.1146 22.1875 18.1146 24.875C18.1146 27.6073 16.7271 30.2948 14.6459 31.5938C13.4511 32.3104 12.4875 32.5792 10.3292 32.8927V37.1032ZM10.3292 20.3511V29.8917C13.4125 29.6677 15.224 27.9209 15.224 25.1438C15.224 23.6657 14.5688 22.2771 13.4896 21.5157C12.6417 20.8886 11.948 20.6646 10.3292 20.3511ZM8.05525 16.3198V7.36149C5.31875 7.71982 3.77708 9.28753 3.77708 11.7511C3.77708 14.2146 5.12604 15.6479 8.05525 16.3198Z" fill="white"/>
</svg>
