<svg width="31" height="45" viewBox="0 0 31 45" fill="none" xmlns="http://www.w3.org/2000/svg">
<path d="M30.5 15.5172C30.5 17.5644 29.8401 20.0152 28.7486 22.666C27.6601 25.3095 26.158 28.1148 24.5089 30.8602C21.6479 35.6231 18.3656 40.1716 16.0728 43.3489C15.8741 43.6242 15.6829 43.8892 15.5 44.1432C15.3171 43.8892 15.1259 43.6242 14.9272 43.3489C12.6344 40.1716 9.35208 35.6231 6.49112 30.8602C4.84196 28.1148 3.33992 25.3095 2.2514 22.666C1.15989 20.0152 0.5 17.5644 0.5 15.5172C0.5 7.22292 7.21625 0.5 15.5 0.5C23.7837 0.5 30.5 7.22292 30.5 15.5172Z" fill="#07071F" stroke="white"/>
<path d="M22.5 14.5662C22.5 18.4322 19.366 21.5662 15.5 21.5662C11.634 21.5662 8.5 18.4322 8.5 14.5662C8.5 10.7002 11.634 7.56616 15.5 7.56616C19.366 7.56616 22.5 10.7002 22.5 14.5662Z" fill="#07071F" stroke="white"/>
</svg>
