<svg width="95" height="88" viewBox="0 0 95 88" fill="none" xmlns="http://www.w3.org/2000/svg">
<path d="M1 44.5H10.8084C13.58 44.5 16.3287 43.9991 18.9221 43.0213L19.6499 42.7469C23.4928 41.2981 26.5058 38.235 27.8909 34.3686L32.5959 21.2351C33.4876 18.7461 33.9434 16.1221 33.9434 13.4782V9.73684V2H38.2855C41.7552 2 44.8883 4.07581 46.241 7.27095V7.27095C47.4728 10.1804 47.8465 13.3815 47.3181 16.4964L45.5323 27.022C44.4967 33.126 49.2002 38.6947 55.3914 38.6947H71.5H87.6947C90.6248 38.6947 93 41.07 93 44V44V46.9393C93 49.2226 91.149 51.0737 88.8656 51.0737H84.9522C84.8301 51.0737 84.7311 51.1727 84.7311 51.2947V51.2947C84.7311 51.4168 84.8301 51.5158 84.9522 51.5158H88.009C89.7678 51.5158 91.2131 52.9038 91.2842 54.6611L91.4165 57.9278C91.5188 60.4539 89.4882 62.5525 86.9601 62.5335L83.2 62.5053C82.8142 62.5024 82.5 62.8142 82.5 63.2V63.2C82.5 63.5837 82.811 63.8947 83.1947 63.8947H86.1321C88.138 63.8947 89.7642 65.5209 89.7642 67.5268V70.8849C89.7642 73.0961 87.9151 74.8581 85.7064 74.7514L81.8258 74.564C81.1655 74.5321 80.6616 75.1464 80.8219 75.7877V75.7877C80.9276 76.2104 81.2982 76.5136 81.7334 76.5334L83.1255 76.5967C84.6057 76.6641 85.7887 77.8521 85.8498 79.3326L85.916 80.9368C86.0201 83.4573 84.0781 85.5929 81.559 85.7282L76.4953 86L37.9145 85.5323C35.2865 85.5005 32.6835 85.0185 30.2184 84.1072L17.2882 79.3274C14.9852 78.476 12.5606 77.9989 10.1067 77.9143L1 77.6M8.99451 70.5V57.5V51.5158" stroke="white" stroke-width="3"/>
</svg>
